<?xml version="1.0" encoding="utf-8"?>
<svg version="1.1" xmlns:xlink="http://www.w3.org/1999/xlink" width="91px" height="91px" xmlns="http://www.w3.org/2000/svg">
  <g transform="matrix(1 0 0 1 -18 -18 )">
    <path d="M 49.6881286549708 47.981171875  C 49.6899025341131 45.62619140625  47.7847563352827 43.715546875  45.4325925925926 43.715546875  C 43.0822027290448 43.715546875  41.1752826510721 45.6244140625  41.1752826510721 47.981171875  C 41.3775048732943 60.82248046875  39.7313450292398 73.2016796875  36.2616374269006 85.58087890625  C 35.7773684210526 87.30845703125  36.6430214424951 91  40.3628460038986 91  C 42.2218713450292 91  43.9301169590643 89.770078125  44.4587329434698 87.88609375  C 46.858791423002 79.37083984375  49.9648538011696 65.59642578125  49.6881286549708 47.981171875  Z M 63.8898050682261 47.44619140625  C 63.7337037037037 37.52861328125  55.385828460039 29.33861328125  45.2800389863548 29.18931640625  C 34.4132553606238 29.176875  26.8299220272904 37.5552734375  26.980701754386 47.156484375  C 27.1137426900585 55.6770703125  26.3154970760234 64.20298828125  24.6090253411306 72.49251953125  C 24.1318518518519 74.79951171875  25.6148148148148 77.058515625  27.9155360623782 77.53306640625  C 30.2304483430799 78.0076171875  32.4690838206628 76.52708984375  32.9462573099415 74.22009765625  C 34.7804483430799 65.3173828125  35.6372319688109 56.16583984375  35.4953216374269 47.02318359375  C 35.4225925925926 42.4109765625  39.0288888888889 37.69390625  45.1540935672515 37.72056640625  C 50.7081091617934 37.8041015625  55.2918128654971 42.22435546875  55.3751851851852 47.5794921875  C 55.5117738791423 56.11962890625  54.8767251461988 64.70064453125  53.4930994152047 73.09326171875  C 53.1081676413255 75.41447265625  54.6798245614035 77.61126953125  56.9982846003899 77.99517578125  C 60.5407212475633 78.58703125  61.7540545808967 75.31138671875  61.8906432748538 74.4813671875  C 63.3594152046783 65.58931640625  64.0299415204678 56.49287109375  63.8898050682261 47.44619140625  Z M 26.2640545808967 31.67404296875  C 27.7452436647173 29.84693359375  27.4685185185185 27.1613671875  25.6449707602339 25.67373046875  C 23.8178752436647 24.19142578125  21.1446393762183 24.46513671875  19.6563547758285 26.29224609375  C 15.1116764132554 31.89087890625  12.669044834308 38.96115234375  12.7825730994152 46.19849609375  C 12.8872319688109 52.87775390625  12.3444249512671 59.5765625  11.1665692007797 66.1136328125  C 10.7514814814815 68.43306640625  12.2858869395712 70.65119140625  14.6007992202729 71.07064453125  C 18.1680701754386 71.69271484375  19.4026900584795 68.4383984375  19.5481481481481 67.62970703125  C 20.823567251462 60.54876953125  21.4107212475634 53.29365234375  21.2971929824561 46.0651953125  C 21.213820662768 40.7544921875  22.9291617933723 35.7779296875  26.2640545808967 31.67404296875  Z M 78.0861598440546 46.91298828125  C 77.8094346978558 29.36171875  62.9957699805068 14.8621484375  45.0636257309942 14.595546875  C 42.3300779727096 14.52267578125  39.5876608187134 14.851484375  36.9428070175439 15.47888671875  C 34.6562768031189 16.02275390625  33.2407212475634 18.31908203125  33.7799805068226 20.6136328125  C 34.3227875243665 22.90462890625  36.6181871345029 24.31583984375  38.9047173489279 23.78263671875  C 40.8648538011696 23.31875  42.8906237816764 23.112578125  44.9359064327485 23.126796875  C 58.3162768031189 23.32763671875  69.3675438596491 34.0574609375  69.5715399610136 47.0462890625  C 69.6761988304093 53.7788671875  69.3444834307992 60.57365234375  68.5817153996101 67.24224609375  C 68.3156335282651 69.5830078125  69.9919493177388 71.69982421875  72.3263742690059 71.96642578125  C 75.2923001949318 72.3130078125  76.8515399610136 69.85494140625  77.0413450292398 68.214453125  C 77.8473761083522 61.1439416010355  78.1963754449794 54.0286164790679  78.0861598440546 46.91298828125  Z M 90.8119688109162 49.03869140625  C 90.8438986354776 45.09654296875  90.8829239766082 41.198828125  89.7777972709552 36.18138671875  C 89.2704678362573 33.88505859375  87.0265107212476 32.41341796875  84.7027290448343 32.9341796875  C 82.4073294346979 33.4425  80.9562962962963 35.7175  81.4636257309942 38.01916015625  C 82.2991228070175 41.824453125  82.3346003898636 44.668203125  82.2973489278752 48.96759765625  C 82.2778362573099 51.3261328125  84.1687914230019 53.24921875  86.5191812865497 53.26876953125  L 86.5546588693957 53.26876953125  C 88.8908576998051 53.26876953125  90.7924561403509 51.3830078125  90.8119688109162 49.03869140625  Z M 81.6250487329435 25.998984375  C 83.5479337231969 24.6446484375  84.0126900584795 21.98396484375  82.6609941520468 20.05732421875  C 74.0222027290448 7.7243359375  59.8861598440546 0.22927734375  44.8454385964912 0.0035546875  C 32.4655360623782 -0.1457421875  21.0151461988304 4.42736328125  12.4987524366472 12.9639453125  C 4.27327485380117 21.21615234375  -0.159649122807018 32.17703125  0.0248343079922027 43.83818359375  L 0.00354775828460039 47.654140625  C -0.0656335282651072 50.00912109375  1.7827485380117 51.97486328125  4.13313840155945 52.04240234375  C 4.17393762183236 52.04595703125  4.21828460038986 52.04595703125  4.26085769980507 52.04595703125  C 6.55270955165692 52.04595703125  8.44543859649123 50.21529296875  8.51284600389863 47.90474609375  L 8.54122807017544 43.70310546875  C 8.39399610136452 34.37205078125  11.9399805068226 25.59908203125  18.5246198830409 18.99802734375  C 25.4001754385965 12.10193359375  34.7272319688109 8.3926171875  44.7212670565302 8.53658203125  C 57.0408576998051 8.7196484375  68.6207407407407 14.85681640625  75.6967446393762 24.9574609375  C 77.0466666666667 26.88765625  79.6986159844055 27.34798828125  81.6250487329435 25.998984375  Z " fill-rule="nonzero" fill="#000000" stroke="none" transform="matrix(1 0 0 1 18 18 )" />
  </g>
</svg>